<?xml version="1.0" encoding="utf-8"?>
<!-- Generator: Adobe Illustrator 22.1.0, SVG Export Plug-In . SVG Version: 6.00 Build 0)  -->
<svg version="1.1" xmlns="http://www.w3.org/2000/svg" xmlns:xlink="http://www.w3.org/1999/xlink" x="0px" y="0px"
	 viewBox="0 0 4101.3 1317.3" style="enable-background:new 0 0 4101.3 1317.3;" xml:space="preserve">
<style type="text/css">
	.st0{display:none;}
	.st1{display:inline;}
	.st2{fill:none;stroke:#21409A;stroke-width:0.9921;stroke-miterlimit:10;stroke-dasharray:2.8336,2.8336;}
	.st3{fill:none;stroke:#21409A;stroke-width:0.9921;stroke-miterlimit:10;stroke-dasharray:2.7822,2.7822;}
	.st4{display:inline;fill:none;stroke:#21409A;stroke-width:0.9921;stroke-miterlimit:10;stroke-dasharray:2.8346,2.8346;}
	.st5{fill:none;stroke:#ED2024;stroke-width:0.9921;stroke-miterlimit:10;}
</style>
<g id="Null" class="st0">
	<g class="st1">
		<circle class="st2" cx="238.5" cy="417.3" r="99.2"/>
	</g>
	<g class="st1">
		<circle class="st2" cx="436.9" cy="417.3" r="99.2"/>
	</g>
	<g class="st1">
		<circle class="st2" cx="635.3" cy="417.3" r="99.2"/>
	</g>
	<g class="st1">
		<circle class="st2" cx="833.7" cy="417.3" r="99.2"/>
	</g>
	<g class="st1">
		<circle class="st2" cx="1032.2" cy="417.3" r="99.2"/>
	</g>
	<g class="st1">
		<circle class="st2" cx="238.5" cy="615.7" r="99.2"/>
	</g>
	<g class="st1">
		<circle class="st2" cx="436.9" cy="615.7" r="99.2"/>
	</g>
	<g class="st1">
		
			<ellipse transform="matrix(0.7071 -0.7071 0.7071 0.7071 -249.295 629.5781)" class="st2" cx="635.3" cy="615.7" rx="99.2" ry="99.2"/>
	</g>
	<g class="st1">
		<circle class="st2" cx="833.7" cy="615.7" r="99.2"/>
	</g>
	<g class="st1">
		<circle class="st2" cx="1032.2" cy="615.7" r="99.2"/>
	</g>
	<g class="st1">
		
			<ellipse transform="matrix(0.7071 -0.7071 0.7071 0.7071 -505.8375 407.08)" class="st2" cx="238.5" cy="814.1" rx="99.2" ry="99.2"/>
	</g>
	<g class="st1">
		
			<ellipse transform="matrix(0.7071 -0.7071 0.7071 0.7071 -447.7201 547.3878)" class="st2" cx="436.9" cy="814.1" rx="99.2" ry="99.2"/>
	</g>
	<g class="st1">
		
			<ellipse transform="matrix(0.7071 -0.7071 0.7071 0.7071 -389.6028 687.6956)" class="st2" cx="635.3" cy="814.1" rx="99.2" ry="99.2"/>
	</g>
	<g class="st1">
		
			<ellipse transform="matrix(0.7071 -0.7071 0.7071 0.7071 -331.4854 828.0034)" class="st2" cx="833.7" cy="814.1" rx="99.2" ry="99.2"/>
	</g>
	<g class="st1">
		
			<ellipse transform="matrix(0.7071 -0.7071 0.7071 0.7071 -273.368 968.3112)" class="st2" cx="1032.2" cy="814.1" rx="99.2" ry="99.2"/>
	</g>
	<g class="st1">
		<circle class="st2" cx="238.5" cy="218.9" r="99.2"/>
	</g>
	<g class="st1">
		<circle class="st2" cx="436.9" cy="218.9" r="99.2"/>
	</g>
	<g class="st1">
		<circle class="st2" cx="635.3" cy="218.9" r="99.2"/>
	</g>
	<g class="st1">
		<circle class="st2" cx="833.7" cy="218.9" r="99.2"/>
	</g>
	<g class="st1">
		<circle class="st2" cx="1032.2" cy="218.9" r="99.2"/>
	</g>
	<g class="st1">
		
			<ellipse transform="matrix(0.7071 -0.7071 0.7071 0.7071 -646.1453 465.1973)" class="st2" cx="238.5" cy="1012.6" rx="99.2" ry="99.2"/>
	</g>
	<g class="st1">
		
			<ellipse transform="matrix(0.7071 -0.7071 0.7071 0.7071 -588.0279 605.5051)" class="st2" cx="436.9" cy="1012.6" rx="99.2" ry="99.2"/>
	</g>
	<g class="st1">
		
			<ellipse transform="matrix(0.7071 -0.7071 0.7071 0.7071 -529.9106 745.8129)" class="st2" cx="635.3" cy="1012.6" rx="99.2" ry="99.2"/>
	</g>
	<g class="st1">
		
			<ellipse transform="matrix(0.7071 -0.7071 0.7071 0.7071 -471.7931 886.1207)" class="st2" cx="833.7" cy="1012.6" rx="99.2" ry="99.2"/>
	</g>
	<g class="st1">
		
			<ellipse transform="matrix(0.7071 -0.7071 0.7071 0.7071 -413.6758 1026.4286)" class="st2" cx="1032.2" cy="1012.6" rx="99.2" ry="99.2"/>
	</g>
	<g class="st1">
		<circle class="st3" cx="238.5" cy="417.3" r="14.2"/>
	</g>
	<g class="st1">
		<circle class="st3" cx="436.9" cy="417.3" r="14.2"/>
	</g>
	<g class="st1">
		
			<ellipse transform="matrix(0.9871 -0.1602 0.1602 0.9871 -58.6387 107.1553)" class="st3" cx="635.3" cy="417.3" rx="14.2" ry="14.2"/>
	</g>
	<g class="st1">
		
			<ellipse transform="matrix(0.9239 -0.3827 0.3827 0.9239 -96.2246 350.8249)" class="st3" cx="833.7" cy="417.3" rx="14.2" ry="14.2"/>
	</g>
	<g class="st1">
		
			<ellipse transform="matrix(0.9871 -0.1602 0.1602 0.9871 -53.5144 170.7236)" class="st3" cx="1032.2" cy="417.3" rx="14.2" ry="14.2"/>
	</g>
	<g class="st1">
		<circle class="st3" cx="238.5" cy="615.7" r="14.2"/>
	</g>
	<g class="st1">
		<circle class="st3" cx="436.9" cy="615.7" r="14.2"/>
	</g>
	<g class="st1">
		<circle class="st3" cx="635.3" cy="615.7" r="14.2"/>
	</g>
	<g class="st1">
		<circle class="st3" cx="833.7" cy="615.7" r="14.2"/>
	</g>
	<g class="st1">
		<circle class="st3" cx="1032.2" cy="615.7" r="14.2"/>
	</g>
	<g class="st1">
		
			<ellipse transform="matrix(0.9571 -0.2898 0.2898 0.9571 -225.6927 104.0381)" class="st3" cx="238.5" cy="814.1" rx="14.2" ry="14.2"/>
	</g>
	<g class="st1">
		
			<ellipse transform="matrix(0.5257 -0.8507 0.8507 0.5257 -485.3428 757.7665)" class="st3" cx="436.9" cy="814.1" rx="14.2" ry="14.2"/>
	</g>
	<g class="st1">
		<circle class="st3" cx="635.3" cy="814.1" r="14.2"/>
	</g>
	<g class="st1">
		
			<ellipse transform="matrix(0.7071 -0.7071 0.7071 0.7071 -331.4854 828.0034)" class="st3" cx="833.7" cy="814.1" rx="14.2" ry="14.2"/>
	</g>
	<g class="st1">
		
			<ellipse transform="matrix(0.9871 -0.1602 0.1602 0.9871 -117.0827 175.8479)" class="st3" cx="1032.2" cy="814.1" rx="14.2" ry="14.2"/>
	</g>
	<g class="st1">
		
			<ellipse transform="matrix(0.9732 -0.2298 0.2298 0.9732 -43.9054 60.6441)" class="st3" cx="238.5" cy="218.9" rx="14.2" ry="14.2"/>
	</g>
	<g class="st1">
		<circle class="st3" cx="436.9" cy="218.9" r="14.2"/>
	</g>
	<g class="st1">
		
			<ellipse transform="matrix(0.9871 -0.1602 0.1602 0.9871 -26.8546 104.5931)" class="st3" cx="635.3" cy="218.9" rx="14.2" ry="14.2"/>
	</g>
	<g class="st1">
		
			<ellipse transform="matrix(0.9951 -9.853794e-02 9.853794e-02 0.9951 -17.5088 83.2207)" class="st3" cx="833.7" cy="218.9" rx="14.2" ry="14.2"/>
	</g>
	<g class="st1">
		
			<ellipse transform="matrix(0.9871 -0.1602 0.1602 0.9871 -21.7302 168.1614)" class="st3" cx="1032.2" cy="218.9" rx="14.2" ry="14.2"/>
	</g>
	<g class="st1">
		
			<ellipse transform="matrix(0.6154 -0.7882 0.7882 0.6154 -706.3957 577.3818)" class="st3" cx="238.5" cy="1012.6" rx="14.2" ry="14.2"/>
	</g>
	<g class="st1">
		
			<ellipse transform="matrix(0.4472 -0.8944 0.8944 0.4472 -664.1559 950.5028)" class="st3" cx="436.9" cy="1012.6" rx="14.2" ry="14.2"/>
	</g>
	<g class="st1">
		
			<ellipse transform="matrix(0.9871 -0.1602 0.1602 0.9871 -153.9911 114.8416)" class="st3" cx="635.3" cy="1012.6" rx="14.2" ry="14.2"/>
	</g>
	<g class="st1">
		
			<ellipse transform="matrix(0.5257 -0.8507 0.8507 0.5257 -465.9196 1189.4542)" class="st3" cx="833.7" cy="1012.6" rx="14.2" ry="14.2"/>
	</g>
	<g class="st1">
		
			<ellipse transform="matrix(0.9871 -0.1602 0.1602 0.9871 -148.8667 178.4099)" class="st3" cx="1032.2" cy="1012.6" rx="14.2" ry="14.2"/>
	</g>
	<circle class="st4" cx="210" cy="190.7" r="59.5"/>
</g>
<g id="Bottom">
	<path class="st5" d="M2915.3,435.9c-6.6,6.6-17.4,6.6-24.1,0c-4.7-4.7-6.1-11.5-4.1-17.4c-1.2-0.4-2.4-1.1-3.3-2
		c-3.3-3.3-3.3-8.7,0-12c3.3-3.3,8.7-3.3,12,0c1,1,1.6,2.1,2,3.3c5.9-2,12.7-0.6,17.4,4.1C2921.9,418.5,2921.9,429.3,2915.3,435.9z"
		/>
	<path class="st5" d="M3113.7,435.9c-6.6,6.6-17.4,6.6-24.1,0c-4.7-4.7-6.1-11.5-4.1-17.4c-1.2-0.4-2.4-1.1-3.3-2
		c-3.3-3.3-3.3-8.7,0-12c3.3-3.3,8.7-3.3,12,0c1,1,1.6,2.1,2,3.3c5.9-2,12.7-0.6,17.4,4.1C3120.3,418.5,3120.3,429.3,3113.7,435.9z"
		/>
	<path class="st5" d="M3312.1,435.9c-6.6,6.6-17.4,6.6-24.1,0c-4.7-4.7-6.1-11.5-4.1-17.4c-1.2-0.4-2.4-1.1-3.3-2
		c-3.3-3.3-3.3-8.7,0-12s8.7-3.3,12,0c1,1,1.6,2.1,2,3.3c5.9-2,12.7-0.6,17.4,4.1C3318.7,418.5,3318.7,429.3,3312.1,435.9z"/>
	<path class="st5" d="M3510.5,435.9c-6.6,6.6-17.4,6.6-24.1,0c-4.7-4.7-6.1-11.5-4.1-17.4c-1.2-0.4-2.4-1.1-3.3-2
		c-3.3-3.3-3.3-8.7,0-12c3.3-3.3,8.7-3.3,12,0c1,1,1.6,2.1,2,3.3c5.9-2,12.7-0.6,17.4,4.1C3517.2,418.5,3517.2,429.3,3510.5,435.9z"
		/>
	<path class="st5" d="M3709,435.9c-6.6,6.6-17.4,6.6-24.1,0c-4.7-4.7-6.1-11.5-4.1-17.4c-1.2-0.4-2.4-1.1-3.3-2
		c-3.3-3.3-3.3-8.7,0-12s8.7-3.3,12,0c1,1,1.6,2.1,2,3.3c5.9-2,12.7-0.6,17.4,4.1C3715.6,418.5,3715.6,429.3,3709,435.9z"/>
	<path class="st5" d="M2915.3,634.4c-6.6,6.6-17.4,6.6-24.1,0c-4.7-4.7-6.1-11.5-4.1-17.4c-1.2-0.4-2.4-1.1-3.3-2
		c-3.3-3.3-3.3-8.7,0-12c3.3-3.3,8.7-3.3,12,0c1,1,1.6,2.1,2,3.3c5.9-2,12.7-0.6,17.4,4.1C2921.9,616.9,2921.9,627.7,2915.3,634.4z"
		/>
	<path class="st5" d="M3113.7,634.4c-6.6,6.6-17.4,6.6-24.1,0c-4.7-4.7-6.1-11.5-4.1-17.4c-1.2-0.4-2.4-1.1-3.3-2
		c-3.3-3.3-3.3-8.7,0-12s8.7-3.3,12,0c1,1,1.6,2.1,2,3.3c5.9-2,12.7-0.6,17.4,4.1C3120.3,616.9,3120.3,627.7,3113.7,634.4z"/>
	<path class="st5" d="M3312.1,634.4c-6.6,6.6-17.4,6.6-24.1,0c-4.7-4.7-6.1-11.5-4.1-17.4c-1.2-0.4-2.4-1.1-3.3-2
		c-3.3-3.3-3.3-8.7,0-12c3.3-3.3,8.7-3.3,12,0c1,1,1.6,2.1,2,3.3c5.9-2,12.7-0.6,17.4,4.1C3318.7,616.9,3318.7,627.7,3312.1,634.4z"
		/>
	<path class="st5" d="M3510.5,634.4c-6.6,6.6-17.4,6.6-24.1,0c-4.7-4.7-6.1-11.5-4.1-17.4c-1.2-0.4-2.4-1.1-3.3-2
		c-3.3-3.3-3.3-8.7,0-12c3.3-3.3,8.7-3.3,12,0c1,1,1.6,2.1,2,3.3c5.9-2,12.7-0.6,17.4,4.1C3517.2,616.9,3517.2,627.7,3510.5,634.4z"
		/>
	<path class="st5" d="M3709,634.4c-6.6,6.6-17.4,6.6-24.1,0c-4.7-4.7-6.1-11.5-4.1-17.4c-1.2-0.4-2.4-1.1-3.3-2
		c-3.3-3.3-3.3-8.7,0-12c3.3-3.3,8.7-3.3,12,0c1,1,1.6,2.1,2,3.3c5.9-2,12.7-0.6,17.4,4.1C3715.6,616.9,3715.6,627.7,3709,634.4z"/>
	<path class="st5" d="M2915.3,832.8c-6.6,6.6-17.4,6.6-24.1,0c-4.7-4.7-6.1-11.5-4.1-17.4c-1.2-0.4-2.4-1.1-3.3-2
		c-3.3-3.3-3.3-8.7,0-12c3.3-3.3,8.7-3.3,12,0c1,1,1.6,2.1,2,3.3c5.9-2,12.7-0.6,17.4,4.1C2921.9,815.4,2921.9,826.1,2915.3,832.8z"
		/>
	<path class="st5" d="M3113.7,832.8c-6.6,6.6-17.4,6.6-24.1,0c-4.7-4.7-6.1-11.5-4.1-17.4c-1.2-0.4-2.4-1.1-3.3-2
		c-3.3-3.3-3.3-8.7,0-12c3.3-3.3,8.7-3.3,12,0c1,1,1.6,2.1,2,3.3c5.9-2,12.7-0.6,17.4,4.1C3120.3,815.4,3120.3,826.1,3113.7,832.8z"
		/>
	<path class="st5" d="M3312.1,832.8c-6.6,6.6-17.4,6.6-24.1,0c-4.7-4.7-6.1-11.5-4.1-17.4c-1.2-0.4-2.4-1.1-3.3-2
		c-3.3-3.3-3.3-8.7,0-12s8.7-3.3,12,0c1,1,1.6,2.1,2,3.3c5.9-2,12.7-0.6,17.4,4.1C3318.7,815.4,3318.7,826.1,3312.1,832.8z"/>
	<path class="st5" d="M3510.5,832.8c-6.6,6.6-17.4,6.6-24.1,0c-4.7-4.7-6.1-11.5-4.1-17.4c-1.2-0.4-2.4-1.1-3.3-2
		c-3.3-3.3-3.3-8.7,0-12c3.3-3.3,8.7-3.3,12,0c1,1,1.6,2.1,2,3.3c5.9-2,12.7-0.6,17.4,4.1C3517.2,815.4,3517.2,826.1,3510.5,832.8z"
		/>
	<path class="st5" d="M3709,832.8c-6.6,6.6-17.4,6.6-24.1,0c-4.7-4.7-6.1-11.5-4.1-17.4c-1.2-0.4-2.4-1.1-3.3-2
		c-3.3-3.3-3.3-8.7,0-12s8.7-3.3,12,0c1,1,1.6,2.1,2,3.3c5.9-2,12.7-0.6,17.4,4.1C3715.6,815.4,3715.6,826.1,3709,832.8z"/>
	<path class="st5" d="M2915.3,237.5c-6.6,6.6-17.4,6.6-24.1,0c-4.7-4.7-6.1-11.5-4.1-17.4c-1.2-0.4-2.4-1.1-3.3-2
		c-3.3-3.3-3.3-8.7,0-12c3.3-3.3,8.7-3.3,12,0c1,1,1.6,2.1,2,3.3c5.9-2,12.7-0.6,17.4,4.1C2921.9,220.1,2921.9,230.9,2915.3,237.5z"
		/>
	<path class="st5" d="M3113.7,237.5c-6.6,6.6-17.4,6.6-24.1,0c-4.7-4.7-6.1-11.5-4.1-17.4c-1.2-0.4-2.4-1.1-3.3-2
		c-3.3-3.3-3.3-8.7,0-12c3.3-3.3,8.7-3.3,12,0c1,1,1.6,2.1,2,3.3c5.9-2,12.7-0.6,17.4,4.1C3120.3,220.1,3120.3,230.9,3113.7,237.5z"
		/>
	<path class="st5" d="M3312.1,237.5c-6.6,6.6-17.4,6.6-24.1,0c-4.7-4.7-6.1-11.5-4.1-17.4c-1.2-0.4-2.4-1.1-3.3-2
		c-3.3-3.3-3.3-8.7,0-12c3.3-3.3,8.7-3.3,12,0c1,1,1.6,2.1,2,3.3c5.9-2,12.7-0.6,17.4,4.1C3318.7,220.1,3318.7,230.9,3312.1,237.5z"
		/>
	<path class="st5" d="M3510.5,237.5c-6.6,6.6-17.4,6.6-24.1,0c-4.7-4.7-6.1-11.5-4.1-17.4c-1.2-0.4-2.4-1.1-3.3-2
		c-3.3-3.3-3.3-8.7,0-12c3.3-3.3,8.7-3.3,12,0c1,1,1.6,2.1,2,3.3c5.9-2,12.7-0.6,17.4,4.1C3517.2,220.1,3517.2,230.9,3510.5,237.5z"
		/>
	<path class="st5" d="M3709,237.5c-6.6,6.6-17.4,6.6-24.1,0c-4.7-4.7-6.1-11.5-4.1-17.4c-1.2-0.4-2.4-1.1-3.3-2
		c-3.3-3.3-3.3-8.7,0-12s8.7-3.3,12,0c1,1,1.6,2.1,2,3.3c5.9-2,12.7-0.6,17.4,4.1C3715.6,220.1,3715.6,230.9,3709,237.5z"/>
	<path class="st5" d="M2915.3,1031.2c-6.6,6.6-17.4,6.6-24.1,0c-4.7-4.7-6.1-11.5-4.1-17.4c-1.2-0.4-2.4-1.1-3.3-2
		c-3.3-3.3-3.3-8.7,0-12c3.3-3.3,8.7-3.3,12,0c1,1,1.6,2.1,2,3.3c5.9-2,12.7-0.6,17.4,4.1
		C2921.9,1013.8,2921.9,1024.6,2915.3,1031.2z"/>
	<path class="st5" d="M3113.7,1031.2c-6.6,6.6-17.4,6.6-24.1,0c-4.7-4.7-6.1-11.5-4.1-17.4c-1.2-0.4-2.4-1.1-3.3-2
		c-3.3-3.3-3.3-8.7,0-12s8.7-3.3,12,0c1,1,1.6,2.1,2,3.3c5.9-2,12.7-0.6,17.4,4.1C3120.3,1013.8,3120.3,1024.6,3113.7,1031.2z"/>
	<path class="st5" d="M3312.1,1031.2c-6.6,6.6-17.4,6.6-24.1,0c-4.7-4.7-6.1-11.5-4.1-17.4c-1.2-0.4-2.4-1.1-3.3-2
		c-3.3-3.3-3.3-8.7,0-12s8.7-3.3,12,0c1,1,1.6,2.1,2,3.3c5.9-2,12.7-0.6,17.4,4.1C3318.7,1013.8,3318.7,1024.6,3312.1,1031.2z"/>
	<path class="st5" d="M3510.5,1031.2c-6.6,6.6-17.4,6.6-24.1,0c-4.7-4.7-6.1-11.5-4.1-17.4c-1.2-0.4-2.4-1.1-3.3-2
		c-3.3-3.3-3.3-8.7,0-12c3.3-3.3,8.7-3.3,12,0c1,1,1.6,2.1,2,3.3c5.9-2,12.7-0.6,17.4,4.1
		C3517.2,1013.8,3517.2,1024.6,3510.5,1031.2z"/>
	<path class="st5" d="M3709,1031.2c-6.6,6.6-17.4,6.6-24.1,0c-4.7-4.7-6.1-11.5-4.1-17.4c-1.2-0.4-2.4-1.1-3.3-2
		c-3.3-3.3-3.3-8.7,0-12s8.7-3.3,12,0c1,1,1.6,2.1,2,3.3c5.9-2,12.7-0.6,17.4,4.1C3715.6,1013.8,3715.6,1024.6,3709,1031.2z"/>
	<path class="st5" d="M3816.2,1296.4H2818c-76.5,0-138.7-62.2-138.7-138.7V159.5c0-76.5,62.2-138.7,138.7-138.7h998.3
		c76.5,0,138.7,62.2,138.7,138.7v998.3C3954.9,1234.3,3892.7,1296.4,3816.2,1296.4z"/>
</g>
<g id="Middle">
	<circle class="st5" cx="1596.6" cy="452" r="53.9"/>
	<circle class="st5" cx="1795" cy="452" r="53.9"/>
	<circle class="st5" cx="1993.5" cy="452" r="53.9"/>
	<circle class="st5" cx="2191.9" cy="452" r="53.9"/>
	<circle class="st5" cx="2390.3" cy="452" r="53.9"/>
	<circle class="st5" cx="1596.6" cy="650.5" r="53.9"/>
	<circle class="st5" cx="1795" cy="650.5" r="53.9"/>
	<circle class="st5" cx="1993.5" cy="650.5" r="53.9"/>
	<circle class="st5" cx="2191.9" cy="650.5" r="53.9"/>
	<circle class="st5" cx="2390.3" cy="650.5" r="53.9"/>
	<circle class="st5" cx="1596.6" cy="848.9" r="53.9"/>
	<circle class="st5" cx="1795" cy="848.9" r="53.9"/>
	<circle class="st5" cx="1993.5" cy="848.9" r="53.9"/>
	<circle class="st5" cx="2191.9" cy="848.9" r="53.9"/>
	<circle class="st5" cx="2390.3" cy="848.9" r="53.9"/>
	<circle class="st5" cx="1596.6" cy="253.6" r="53.9"/>
	<circle class="st5" cx="1795" cy="253.6" r="53.9"/>
	<circle class="st5" cx="1993.5" cy="253.6" r="53.9"/>
	<circle class="st5" cx="2191.9" cy="253.6" r="53.9"/>
	<circle class="st5" cx="2390.3" cy="253.6" r="53.9"/>
	<circle class="st5" cx="1596.6" cy="1047.3" r="53.9"/>
	<circle class="st5" cx="1795" cy="1047.3" r="53.9"/>
	<circle class="st5" cx="1993.5" cy="1047.3" r="53.9"/>
	<circle class="st5" cx="2191.9" cy="1047.3" r="53.9"/>
	<circle class="st5" cx="2390.3" cy="1047.3" r="53.9"/>
	<path class="st5" d="M2481.5,1296.4h-998.3c-76.5,0-138.7-62.2-138.7-138.7V159.5c0-76.5,62.2-138.7,138.7-138.7h998.3
		c76.5,0,138.7,62.2,138.7,138.7v998.3C2620.1,1234.3,2557.9,1296.4,2481.5,1296.4z"/>
</g>
<g id="Top">
	<circle class="st5" cx="290.7" cy="445.4" r="59.5"/>
	<circle class="st5" cx="489.2" cy="445.4" r="59.5"/>
	<circle class="st5" cx="687.6" cy="445.4" r="59.5"/>
	<circle class="st5" cx="886" cy="445.4" r="59.5"/>
	<circle class="st5" cx="1084.4" cy="445.4" r="59.5"/>
	<circle class="st5" cx="290.7" cy="643.8" r="59.5"/>
	<circle class="st5" cx="489.2" cy="643.8" r="59.5"/>
	<circle class="st5" cx="687.6" cy="643.8" r="59.5"/>
	<circle class="st5" cx="886" cy="643.8" r="59.5"/>
	<circle class="st5" cx="1084.4" cy="643.8" r="59.5"/>
	<circle class="st5" cx="290.7" cy="842.2" r="59.5"/>
	<circle class="st5" cx="489.2" cy="842.2" r="59.5"/>
	<circle class="st5" cx="687.6" cy="842.2" r="59.5"/>
	<circle class="st5" cx="886" cy="842.2" r="59.5"/>
	<circle class="st5" cx="1084.4" cy="842.2" r="59.5"/>
	<circle class="st5" cx="290.7" cy="246.9" r="59.5"/>
	<circle class="st5" cx="489.2" cy="246.9" r="59.5"/>
	<circle class="st5" cx="687.6" cy="246.9" r="59.5"/>
	<circle class="st5" cx="886" cy="246.9" r="59.5"/>
	<circle class="st5" cx="1084.4" cy="246.9" r="59.5"/>
	<circle class="st5" cx="290.7" cy="1040.6" r="59.5"/>
	<circle class="st5" cx="489.2" cy="1040.6" r="59.5"/>
	<circle class="st5" cx="687.6" cy="1040.6" r="59.5"/>
	<circle class="st5" cx="886" cy="1040.6" r="59.5"/>
	<circle class="st5" cx="1084.4" cy="1040.6" r="59.5"/>
	<path class="st5" d="M177.3,41.9c-61.2,0-110.9,49.8-110.9,110.9v998.3c0,61.2,49.8,110.9,110.9,110.9h998.3
		c61.2,0,110.9-49.8,110.9-110.9V152.8c0-61.2-49.8-110.9-110.9-110.9H177.3z"/>
</g>
</svg>
