<?xml version="1.0" encoding="utf-8"?>
<!-- Generator: Adobe Illustrator 22.1.0, SVG Export Plug-In . SVG Version: 6.00 Build 0)  -->
<svg version="1.1" id="Layer_1" xmlns="http://www.w3.org/2000/svg" xmlns:xlink="http://www.w3.org/1999/xlink" x="0px" y="0px"
	 viewBox="0 0 4101.3 1417.3" style="enable-background:new 0 0 4101.3 1417.3;" xml:space="preserve">
<style type="text/css">
	.st0{display:none;}
	.st1{display:inline;}
	.st2{fill:none;stroke:#21409A;stroke-width:0.9921;stroke-miterlimit:10;stroke-dasharray:2.8336,2.8336;}
	.st3{fill:none;stroke:#21409A;stroke-width:0.9921;stroke-miterlimit:10;stroke-dasharray:2.7822,2.7822;}
	.st4{display:inline;fill:none;stroke:#21409A;stroke-width:0.9921;stroke-miterlimit:10;stroke-dasharray:2.8346,2.8346;}
	.st5{fill:none;stroke:#FF0000;stroke-width:0.9921;stroke-miterlimit:10;}
	.st6{fill:none;stroke:#FF0000;stroke-width:0.992;stroke-miterlimit:10;}
	.st7{fill:none;}
	.st8{font-family:'MyriadPro-Regular';}
	.st9{font-size:18px;}
</style>
<g id="Null" class="st0">
	<g class="st1">
		<circle class="st2" cx="238.5" cy="467.3" r="99.2"/>
	</g>
	<g class="st1">
		<circle class="st2" cx="436.9" cy="467.3" r="99.2"/>
	</g>
	<g class="st1">
		<circle class="st2" cx="635.3" cy="467.3" r="99.2"/>
	</g>
	<g class="st1">
		<circle class="st2" cx="833.7" cy="467.3" r="99.2"/>
	</g>
	<g class="st1">
		
			<ellipse transform="matrix(0.7071 -0.7071 0.7071 0.7071 -28.1206 866.7421)" class="st2" cx="1032.2" cy="467.3" rx="99.2" ry="99.2"/>
	</g>
	<g class="st1">
		<circle class="st2" cx="238.5" cy="665.7" r="99.2"/>
	</g>
	<g class="st1">
		<circle class="st2" cx="436.9" cy="665.7" r="99.2"/>
	</g>
	<g class="st1">
		<ellipse class="st2" cx="635.3" cy="665.7" rx="99.2" ry="99.2"/>
	</g>
	<g class="st1">
		<circle class="st2" cx="833.7" cy="665.7" r="99.2"/>
	</g>
	<g class="st1">
		
			<ellipse transform="matrix(0.7071 -0.7071 0.7071 0.7071 -168.41 924.8508)" class="st2" cx="1032.2" cy="665.7" rx="99.2" ry="99.2"/>
	</g>
	<g class="st1">
		<ellipse class="st2" cx="238.5" cy="864.1" rx="99.2" ry="99.2"/>
	</g>
	<g class="st1">
		
			<ellipse transform="matrix(0.7071 -0.7071 0.7071 0.7071 -483.0414 562.0023)" class="st2" cx="436.9" cy="864.1" rx="99.2" ry="99.2"/>
	</g>
	<g class="st1">
		<ellipse class="st2" cx="635.3" cy="864.1" rx="99.2" ry="99.2"/>
	</g>
	<g class="st1">
		<ellipse class="st2" cx="833.7" cy="864.1" rx="99.2" ry="99.2"/>
	</g>
	<g class="st1">
		
			<ellipse transform="matrix(0.7071 -0.7071 0.7071 0.7071 -308.676 982.9421)" class="st2" cx="1032.2" cy="864.1" rx="99.2" ry="99.2"/>
	</g>
	<g class="st1">
		<circle class="st2" cx="238.5" cy="268.9" r="99.2"/>
	</g>
	<g class="st1">
		<circle class="st2" cx="436.9" cy="268.9" r="99.2"/>
	</g>
	<g class="st1">
		<circle class="st2" cx="635.3" cy="268.9" r="99.2"/>
	</g>
	<g class="st1">
		<circle class="st2" cx="833.7" cy="268.9" r="99.2"/>
	</g>
	<g class="st1">
		
			<ellipse transform="matrix(0.7071 -0.7071 0.7071 0.7071 112.1689 808.6335)" class="st2" cx="1032.2" cy="268.9" rx="99.2" ry="99.2"/>
	</g>
	<g class="st1">
		
			<ellipse transform="matrix(0.7071 -0.7071 0.7071 0.7071 -681.5114 479.8873)" class="st2" cx="238.5" cy="1062.6" rx="99.2" ry="99.2"/>
	</g>
	<g class="st1">
		
			<ellipse transform="matrix(0.7071 -0.7071 0.7071 0.7071 -623.4131 620.1713)" class="st2" cx="436.9" cy="1062.6" rx="99.2" ry="99.2"/>
	</g>
	<g class="st1">
		
			<ellipse transform="matrix(0.7071 -0.7071 0.7071 0.7071 -565.3149 760.4552)" class="st2" cx="635.3" cy="1062.6" rx="99.2" ry="99.2"/>
	</g>
	<g class="st1">
		
			<ellipse transform="matrix(0.7071 -0.7071 0.7071 0.7071 -507.2167 900.7393)" class="st2" cx="833.7" cy="1062.6" rx="99.2" ry="99.2"/>
	</g>
	<g class="st1">
		
			<ellipse transform="matrix(0.7071 -0.7071 0.7071 0.7071 -449.0554 1041.1072)" class="st2" cx="1032.2" cy="1062.6" rx="99.2" ry="99.2"/>
	</g>
	<g class="st1">
		<circle class="st3" cx="238.5" cy="467.3" r="14.2"/>
	</g>
	<g class="st1">
		<circle class="st3" cx="436.9" cy="467.3" r="14.2"/>
	</g>
	<g class="st1">
		<ellipse class="st3" cx="635.3" cy="467.3" rx="14.2" ry="14.2"/>
	</g>
	<g class="st1">
		<ellipse class="st3" cx="833.7" cy="467.3" rx="14.2" ry="14.2"/>
	</g>
	<g class="st1">
		
			<ellipse transform="matrix(0.1602 -0.9871 0.9871 0.1602 405.5825 1411.3279)" class="st3" cx="1032.2" cy="467.3" rx="14.2" ry="14.2"/>
	</g>
	<g class="st1">
		<circle class="st3" cx="238.5" cy="665.7" r="14.2"/>
	</g>
	<g class="st1">
		<circle class="st3" cx="436.9" cy="665.7" r="14.2"/>
	</g>
	<g class="st1">
		<circle class="st3" cx="635.3" cy="665.7" r="14.2"/>
	</g>
	<g class="st1">
		<circle class="st3" cx="833.7" cy="665.7" r="14.2"/>
	</g>
	<g class="st1">
		
			<ellipse transform="matrix(0.3162 -0.9487 0.9487 0.3162 74.248 1434.4338)" class="st3" cx="1032.2" cy="665.7" rx="14.2" ry="14.2"/>
	</g>
	<g class="st1">
		
			<ellipse transform="matrix(0.9571 -0.2898 0.2898 0.9571 -240.1843 106.1993)" class="st3" cx="238.5" cy="864.1" rx="14.2" ry="14.2"/>
	</g>
	<g class="st1">
		<ellipse class="st3" cx="436.9" cy="864.1" rx="14.2" ry="14.2"/>
	</g>
	<g class="st1">
		<circle class="st3" cx="635.3" cy="864.1" r="14.2"/>
	</g>
	<g class="st1">
		<ellipse class="st3" cx="833.7" cy="864.1" rx="14.2" ry="14.2"/>
	</g>
	<g class="st1">
		
			<ellipse transform="matrix(0.1602 -0.9871 0.9871 0.1602 13.9062 1744.5675)" class="st3" cx="1032.2" cy="864.1" rx="14.2" ry="14.2"/>
	</g>
	<g class="st1">
		<ellipse class="st3" cx="238.5" cy="268.9" rx="14.2" ry="14.2"/>
	</g>
	<g class="st1">
		<circle class="st3" cx="436.9" cy="268.9" r="14.2"/>
	</g>
	<g class="st1">
		
			<ellipse transform="matrix(0.9871 -0.1602 0.1602 0.9871 -34.8746 105.2484)" class="st3" cx="635.3" cy="268.9" rx="14.2" ry="14.2"/>
	</g>
	<g class="st1">
		
			<ellipse transform="matrix(0.9951 -9.854440e-02 9.854440e-02 0.9951 -22.441 83.4626)" class="st3" cx="833.7" cy="268.9" rx="14.2" ry="14.2"/>
	</g>
	<g class="st1">
		
			<ellipse transform="matrix(0.2982 -0.9545 0.9545 0.2982 467.8098 1174.0227)" class="st3" cx="1032.2" cy="268.9" rx="14.2" ry="14.2"/>
	</g>
	<g class="st1">
		
			<ellipse transform="matrix(0.6154 -0.7882 0.7882 0.6154 -745.8089 596.6786)" class="st3" cx="238.5" cy="1062.6" rx="14.2" ry="14.2"/>
	</g>
	<g class="st1">
		
			<ellipse transform="matrix(0.4472 -0.8944 0.8944 0.4472 -708.905 978.1494)" class="st3" cx="436.9" cy="1062.6" rx="14.2" ry="14.2"/>
	</g>
	<g class="st1">
		
			<ellipse transform="matrix(0.9871 -0.1602 0.1602 0.9871 -162.0257 115.4993)" class="st3" cx="635.3" cy="1062.6" rx="14.2" ry="14.2"/>
	</g>
	<g class="st1">
		
			<ellipse transform="matrix(0.5257 -0.8507 0.8507 0.5257 -508.3809 1213.2405)" class="st3" cx="833.8" cy="1062.5" rx="14.2" ry="14.2"/>
	</g>
	<g class="st1">
		
			<ellipse transform="matrix(0.9871 -0.1602 0.1602 0.9871 -156.9157 179.1231)" class="st3" cx="1032.3" cy="1062.6" rx="14.2" ry="14.2"/>
	</g>
	<circle class="st4" cx="210" cy="240.7" r="59.5"/>
</g>
<g id="Bottom">
	<path class="st5" d="M2915.3,497.9c-6.6,6.6-17.4,6.6-24.1,0c-4.7-4.7-6.1-11.5-4.1-17.4c-1.2-0.4-2.4-1.1-3.3-2
		c-3.3-3.3-3.3-8.7,0-12s8.7-3.3,12,0c1,1,1.6,2.1,2,3.3c5.9-2,12.7-0.6,17.4,4.1C2921.9,480.5,2921.9,491.3,2915.3,497.9z"/>
	<path class="st5" d="M3113.7,497.9c-6.6,6.6-17.4,6.6-24.1,0c-4.7-4.7-6.1-11.5-4.1-17.4c-1.2-0.4-2.4-1.1-3.3-2
		c-3.3-3.3-3.3-8.7,0-12s8.7-3.3,12,0c1,1,1.6,2.1,2,3.3c5.9-2,12.7-0.6,17.4,4.1C3120.3,480.5,3120.3,491.3,3113.7,497.9z"/>
	<path class="st5" d="M3312.1,497.9c-6.6,6.6-17.4,6.6-24.1,0c-4.7-4.7-6.1-11.5-4.1-17.4c-1.2-0.4-2.4-1.1-3.3-2
		c-3.3-3.3-3.3-8.7,0-12s8.7-3.3,12,0c1,1,1.6,2.1,2,3.3c5.9-2,12.7-0.6,17.4,4.1C3318.7,480.5,3318.7,491.3,3312.1,497.9z"/>
	<path class="st5" d="M3510.5,497.9c-6.6,6.6-17.4,6.6-24.1,0c-4.7-4.7-6.1-11.5-4.1-17.4c-1.2-0.4-2.4-1.1-3.3-2
		c-3.3-3.3-3.3-8.7,0-12s8.7-3.3,12,0c1,1,1.6,2.1,2,3.3c5.9-2,12.7-0.6,17.4,4.1C3517.2,480.5,3517.2,491.3,3510.5,497.9z"/>
	<path class="st5" d="M3709,497.9c-6.6,6.6-17.4,6.6-24.1,0c-4.7-4.7-6.1-11.5-4.1-17.4c-1.2-0.4-2.4-1.1-3.3-2
		c-3.3-3.3-3.3-8.7,0-12s8.7-3.3,12,0c1,1,1.6,2.1,2,3.3c5.9-2,12.7-0.6,17.4,4.1C3715.6,480.5,3715.6,491.3,3709,497.9z"/>
	<path class="st5" d="M2915.3,696.4c-6.6,6.6-17.4,6.6-24.1,0c-4.7-4.7-6.1-11.5-4.1-17.4c-1.2-0.4-2.4-1.1-3.3-2
		c-3.3-3.3-3.3-8.7,0-12s8.7-3.3,12,0c1,1,1.6,2.1,2,3.3c5.9-2,12.7-0.6,17.4,4.1C2921.9,678.9,2921.9,689.7,2915.3,696.4z"/>
	<path class="st5" d="M3113.7,696.4c-6.6,6.6-17.4,6.6-24.1,0c-4.7-4.7-6.1-11.5-4.1-17.4c-1.2-0.4-2.4-1.1-3.3-2
		c-3.3-3.3-3.3-8.7,0-12s8.7-3.3,12,0c1,1,1.6,2.1,2,3.3c5.9-2,12.7-0.6,17.4,4.1C3120.3,678.9,3120.3,689.7,3113.7,696.4z"/>
	<path class="st5" d="M3312.1,696.4c-6.6,6.6-17.4,6.6-24.1,0c-4.7-4.7-6.1-11.5-4.1-17.4c-1.2-0.4-2.4-1.1-3.3-2
		c-3.3-3.3-3.3-8.7,0-12s8.7-3.3,12,0c1,1,1.6,2.1,2,3.3c5.9-2,12.7-0.6,17.4,4.1C3318.7,678.9,3318.7,689.7,3312.1,696.4z"/>
	<path class="st5" d="M3510.5,696.4c-6.6,6.6-17.4,6.6-24.1,0c-4.7-4.7-6.1-11.5-4.1-17.4c-1.2-0.4-2.4-1.1-3.3-2
		c-3.3-3.3-3.3-8.7,0-12s8.7-3.3,12,0c1,1,1.6,2.1,2,3.3c5.9-2,12.7-0.6,17.4,4.1C3517.2,678.9,3517.2,689.7,3510.5,696.4z"/>
	<path class="st5" d="M3709,696.4c-6.6,6.6-17.4,6.6-24.1,0c-4.7-4.7-6.1-11.5-4.1-17.4c-1.2-0.4-2.4-1.1-3.3-2
		c-3.3-3.3-3.3-8.7,0-12s8.7-3.3,12,0c1,1,1.6,2.1,2,3.3c5.9-2,12.7-0.6,17.4,4.1C3715.6,678.9,3715.6,689.7,3709,696.4z"/>
	<path class="st5" d="M2915.3,894.8c-6.6,6.6-17.4,6.6-24.1,0c-4.7-4.7-6.1-11.5-4.1-17.4c-1.2-0.4-2.4-1.1-3.3-2
		c-3.3-3.3-3.3-8.7,0-12s8.7-3.3,12,0c1,1,1.6,2.1,2,3.3c5.9-2,12.7-0.6,17.4,4.1C2921.9,877.4,2921.9,888.1,2915.3,894.8z"/>
	<path class="st5" d="M3113.7,894.8c-6.6,6.6-17.4,6.6-24.1,0c-4.7-4.7-6.1-11.5-4.1-17.4c-1.2-0.4-2.4-1.1-3.3-2
		c-3.3-3.3-3.3-8.7,0-12s8.7-3.3,12,0c1,1,1.6,2.1,2,3.3c5.9-2,12.7-0.6,17.4,4.1C3120.3,877.4,3120.3,888.1,3113.7,894.8z"/>
	<path class="st5" d="M3312.1,894.8c-6.6,6.6-17.4,6.6-24.1,0c-4.7-4.7-6.1-11.5-4.1-17.4c-1.2-0.4-2.4-1.1-3.3-2
		c-3.3-3.3-3.3-8.7,0-12s8.7-3.3,12,0c1,1,1.6,2.1,2,3.3c5.9-2,12.7-0.6,17.4,4.1C3318.7,877.4,3318.7,888.1,3312.1,894.8z"/>
	<path class="st5" d="M3510.5,894.8c-6.6,6.6-17.4,6.6-24.1,0c-4.7-4.7-6.1-11.5-4.1-17.4c-1.2-0.4-2.4-1.1-3.3-2
		c-3.3-3.3-3.3-8.7,0-12s8.7-3.3,12,0c1,1,1.6,2.1,2,3.3c5.9-2,12.7-0.6,17.4,4.1C3517.2,877.4,3517.2,888.1,3510.5,894.8z"/>
	<path class="st5" d="M3709,894.8c-6.6,6.6-17.4,6.6-24.1,0c-4.7-4.7-6.1-11.5-4.1-17.4c-1.2-0.4-2.4-1.1-3.3-2
		c-3.3-3.3-3.3-8.7,0-12s8.7-3.3,12,0c1,1,1.6,2.1,2,3.3c5.9-2,12.7-0.6,17.4,4.1C3715.6,877.4,3715.6,888.1,3709,894.8z"/>
	<path class="st5" d="M2915.3,299.5c-6.6,6.6-17.4,6.6-24.1,0c-4.7-4.7-6.1-11.5-4.1-17.4c-1.2-0.4-2.4-1.1-3.3-2
		c-3.3-3.3-3.3-8.7,0-12c3.3-3.3,8.7-3.3,12,0c1,1,1.6,2.1,2,3.3c5.9-2,12.7-0.6,17.4,4.1C2921.9,282.1,2921.9,292.9,2915.3,299.5z"
		/>
	<path class="st5" d="M3113.7,299.5c-6.6,6.6-17.4,6.6-24.1,0c-4.7-4.7-6.1-11.5-4.1-17.4c-1.2-0.4-2.4-1.1-3.3-2
		c-3.3-3.3-3.3-8.7,0-12c3.3-3.3,8.7-3.3,12,0c1,1,1.6,2.1,2,3.3c5.9-2,12.7-0.6,17.4,4.1C3120.3,282.1,3120.3,292.9,3113.7,299.5z"
		/>
	<path class="st5" d="M3312.1,299.5c-6.6,6.6-17.4,6.6-24.1,0c-4.7-4.7-6.1-11.5-4.1-17.4c-1.2-0.4-2.4-1.1-3.3-2
		c-3.3-3.3-3.3-8.7,0-12c3.3-3.3,8.7-3.3,12,0c1,1,1.6,2.1,2,3.3c5.9-2,12.7-0.6,17.4,4.1C3318.7,282.1,3318.7,292.9,3312.1,299.5z"
		/>
	<path class="st5" d="M3510.5,299.5c-6.6,6.6-17.4,6.6-24.1,0c-4.7-4.7-6.1-11.5-4.1-17.4c-1.2-0.4-2.4-1.1-3.3-2
		c-3.3-3.3-3.3-8.7,0-12c3.3-3.3,8.7-3.3,12,0c1,1,1.6,2.1,2,3.3c5.9-2,12.7-0.6,17.4,4.1C3517.2,282.1,3517.2,292.9,3510.5,299.5z"
		/>
	<path class="st5" d="M3709,299.5c-6.6,6.6-17.4,6.6-24.1,0c-4.7-4.7-6.1-11.5-4.1-17.4c-1.2-0.4-2.4-1.1-3.3-2
		c-3.3-3.3-3.3-8.7,0-12c3.3-3.3,8.7-3.3,12,0c1,1,1.6,2.1,2,3.3c5.9-2,12.7-0.6,17.4,4.1C3715.6,282.1,3715.6,292.9,3709,299.5z"/>
	<path class="st5" d="M2915.3,1093.2c-6.6,6.6-17.4,6.6-24.1,0c-4.7-4.7-6.1-11.5-4.1-17.4c-1.2-0.4-2.4-1.1-3.3-2
		c-3.3-3.3-3.3-8.7,0-12c3.3-3.3,8.7-3.3,12,0c1,1,1.6,2.1,2,3.3c5.9-2,12.7-0.6,17.4,4.1
		C2921.9,1075.8,2921.9,1086.6,2915.3,1093.2z"/>
	<path class="st5" d="M3113.7,1093.2c-6.6,6.6-17.4,6.6-24.1,0c-4.7-4.7-6.1-11.5-4.1-17.4c-1.2-0.4-2.4-1.1-3.3-2
		c-3.3-3.3-3.3-8.7,0-12c3.3-3.3,8.7-3.3,12,0c1,1,1.6,2.1,2,3.3c5.9-2,12.7-0.6,17.4,4.1
		C3120.3,1075.8,3120.3,1086.6,3113.7,1093.2z"/>
	<path class="st5" d="M3312.1,1093.2c-6.6,6.6-17.4,6.6-24.1,0c-4.7-4.7-6.1-11.5-4.1-17.4c-1.2-0.4-2.4-1.1-3.3-2
		c-3.3-3.3-3.3-8.7,0-12c3.3-3.3,8.7-3.3,12,0c1,1,1.6,2.1,2,3.3c5.9-2,12.7-0.6,17.4,4.1
		C3318.7,1075.8,3318.7,1086.6,3312.1,1093.2z"/>
	<path class="st5" d="M3510.5,1093.2c-6.6,6.6-17.4,6.6-24.1,0c-4.7-4.7-6.1-11.5-4.1-17.4c-1.2-0.4-2.4-1.1-3.3-2
		c-3.3-3.3-3.3-8.7,0-12c3.3-3.3,8.7-3.3,12,0c1,1,1.6,2.1,2,3.3c5.9-2,12.7-0.6,17.4,4.1
		C3517.2,1075.8,3517.2,1086.6,3510.5,1093.2z"/>
	<path class="st5" d="M3709,1093.2c-6.6,6.6-17.4,6.6-24.1,0c-4.7-4.7-6.1-11.5-4.1-17.4c-1.2-0.4-2.4-1.1-3.3-2
		c-3.3-3.3-3.3-8.7,0-12c3.3-3.3,8.7-3.3,12,0c1,1,1.6,2.1,2,3.3c5.9-2,12.7-0.6,17.4,4.1C3715.6,1075.8,3715.6,1086.6,3709,1093.2z
		"/>
	<path class="st5" d="M3816.2,1358.4H2818c-76.5,0-138.7-62.2-138.7-138.7V221.5c0-76.5,62.2-138.7,138.7-138.7h998.3
		c76.5,0,138.7,62.2,138.7,138.7v998.3C3954.9,1296.3,3892.7,1358.4,3816.2,1358.4z"/>
</g>
<g id="Middle">
	<circle class="st6" cx="1596.6" cy="514" r="53.9"/>
	<circle class="st6" cx="1795" cy="514" r="53.9"/>
	<circle class="st6" cx="1993.5" cy="514" r="53.9"/>
	<circle class="st6" cx="2191.9" cy="514" r="53.9"/>
	<circle class="st6" cx="2390.3" cy="514" r="53.9"/>
	<circle class="st6" cx="1596.6" cy="712.5" r="53.9"/>
	<circle class="st6" cx="1795" cy="712.5" r="53.9"/>
	<circle class="st6" cx="1993.5" cy="712.5" r="53.9"/>
	<circle class="st6" cx="2191.9" cy="712.5" r="53.9"/>
	<circle class="st6" cx="2390.3" cy="712.5" r="53.9"/>
	<circle class="st6" cx="1596.6" cy="910.9" r="53.9"/>
	<circle class="st6" cx="1795" cy="910.9" r="53.9"/>
	<circle class="st6" cx="1993.5" cy="910.9" r="53.9"/>
	<circle class="st6" cx="2191.9" cy="910.9" r="53.9"/>
	<circle class="st6" cx="2390.3" cy="910.9" r="53.9"/>
	<circle class="st6" cx="1596.6" cy="315.6" r="53.9"/>
	<circle class="st6" cx="1795" cy="315.6" r="53.9"/>
	<circle class="st6" cx="1993.5" cy="315.6" r="53.9"/>
	<circle class="st6" cx="2191.9" cy="315.6" r="53.9"/>
	<circle class="st6" cx="2390.3" cy="315.6" r="53.9"/>
	<circle class="st6" cx="1596.6" cy="1109.3" r="53.9"/>
	<circle class="st6" cx="1795" cy="1109.3" r="53.9"/>
	<circle class="st6" cx="1993.5" cy="1109.3" r="53.9"/>
	<circle class="st6" cx="2191.9" cy="1109.3" r="53.9"/>
	<circle class="st6" cx="2390.3" cy="1109.3" r="53.9"/>
	<path class="st6" d="M2481.5,1358.4h-998.3c-76.5,0-138.7-62.2-138.7-138.7V221.5c0-76.5,62.2-138.7,138.7-138.7h998.3
		c76.5,0,138.7,62.2,138.7,138.7v998.3C2620.1,1296.3,2557.9,1358.4,2481.5,1358.4z"/>
</g>
<g id="Top">
	<circle class="st5" cx="290.7" cy="501.4" r="59.5"/>
	<circle class="st5" cx="489.2" cy="501.4" r="59.5"/>
	<circle class="st5" cx="687.6" cy="501.4" r="59.5"/>
	<circle class="st5" cx="886" cy="501.4" r="59.5"/>
	<circle class="st5" cx="1084.4" cy="501.4" r="59.5"/>
	<circle class="st5" cx="290.7" cy="699.8" r="59.5"/>
	<circle class="st5" cx="489.2" cy="699.8" r="59.5"/>
	<circle class="st5" cx="687.6" cy="699.8" r="59.5"/>
	<circle class="st5" cx="886" cy="699.8" r="59.5"/>
	<circle class="st5" cx="1084.4" cy="699.8" r="59.5"/>
	<circle class="st5" cx="290.7" cy="898.2" r="59.5"/>
	<circle class="st5" cx="489.2" cy="898.2" r="59.5"/>
	<circle class="st5" cx="687.6" cy="898.2" r="59.5"/>
	<circle class="st5" cx="886" cy="898.2" r="59.5"/>
	<circle class="st5" cx="1084.4" cy="898.2" r="59.5"/>
	<circle class="st5" cx="290.7" cy="302.9" r="59.5"/>
	<circle class="st5" cx="489.2" cy="302.9" r="59.5"/>
	<circle class="st5" cx="687.6" cy="302.9" r="59.5"/>
	<circle class="st5" cx="886" cy="302.9" r="59.5"/>
	<circle class="st5" cx="1084.4" cy="302.9" r="59.5"/>
	<circle class="st5" cx="290.7" cy="1096.6" r="59.5"/>
	<circle class="st5" cx="489.2" cy="1096.6" r="59.5"/>
	<circle class="st5" cx="687.6" cy="1096.6" r="59.5"/>
	<circle class="st5" cx="886" cy="1096.6" r="59.5"/>
	<circle class="st5" cx="1084.4" cy="1096.6" r="59.5"/>
	<path class="st5" d="M177.3,97.9c-61.2,0-110.9,49.8-110.9,110.9v998.3c0,61.2,49.8,110.9,110.9,110.9h998.3
		c61.2,0,110.9-49.8,110.9-110.9V208.8c0-61.2-49.8-110.9-110.9-110.9H177.3z"/>
</g>
<rect x="549.6" y="43.3" class="st7" width="271.4" height="43.5"/>
<text transform="matrix(1 0 0 1 622.0668 56.0673)"><tspan x="0" y="0" class="st8 st9"> Mounting Board</tspan><tspan x="-12" y="21.6" class="st8 st9">and Circles “eyelids”</tspan></text>
<rect x="1943.9" y="44.8" class="st7" width="99.2" height="15"/>
<text transform="matrix(1 0 0 1 1949.1753 57.5673)" class="st8 st9">Front Board</text>
<rect x="3248" y="44.8" class="st7" width="99.2" height="15"/>
<text transform="matrix(1 0 0 1 3256.0288 57.5673)" class="st8 st9">Back Board</text>
</svg>
